<?xml version="1.0" encoding="UTF-8"?>
<svg id="Layer_1" data-name="Layer 1" xmlns="http://www.w3.org/2000/svg" viewBox="0 0 660.23 275.52">
  <defs>
    <style>
      .cls-1 {
        fill: #fff;
      }
    </style>
  </defs>
  <path class="cls-1" d="M109.51,8.86V56.8H47.18V8.86H21.23v119.33h25.95v-47.94h62.33v47.94h25.95V8.86h-25.95Z"/>
  <path class="cls-1" d="M197.55,128.18c-.1,2.74-.36,5.37-.82,7.65-2.83,.08-5.84,.35-8.7,.94-.35,.07-.71,.15-1.06,.23-.65-2.73-1.09-6.08-1.36-9.56-.48-5.94-.48-12.26-.32-16.46,.06-1.57,.15-2.85,.24-3.7,.12-1.14,.37-2.53,.83-3.84,2.96,.7,6.2,1.04,9.66,1.06,.23,.79,.39,1.58,.47,2.28,.11,.93,.28,2.39,.45,4.2,.42,4.48,.87,11.1,.61,17.2Z"/>
  <path class="cls-1" d="M221.06,123.82c16.85-6.66,28.55-21.09,28.55-44.36,0-33.12-24.34-48.72-53.34-48.72s-53.34,15.84-53.34,48.72c0,21.72,10.5,35.93,25.92,43.12l-38.53,107.61h26.89l7.04-14.67h60.96l7.04,14.67h26.89l-38.08-106.37Zm-8.09,43.99s-1.92,5.02-8.42,5.5l5.06,29.11-3.37,7.94h-4.57l-6.98-6.26-.03-5.4,1.82-1.6-1.92-2.78,2.56-4.92-3.75-3.74-.52-5.56-1.93-.11v-4.49s-5.88,.53-7.8-.64c-1.93-1.18-8.45-7.17-9.63-14.01-1.17-6.84-2.14-15.5-1.17-16.89,.41-.6,5.97-4.54,13.19-6.58-.88-3.02-1.47-6.56-1.82-10.24-.55-5.52-.59-11.35-.36-16.16,.15-3.39,.44-6.26,.76-8.17-9.55-3.02-15.64-10.33-15.64-23.35,0-17.93,11.57-25.05,27.82-25.05s27.83,7.42,27.83,25.05c0,15.94-9.77,23.73-23.96,24.88,.24,1.83,.46,4.11,.65,6.64,.36,5.13,.54,11.32,.19,17.07-.16,2.75-.44,5.39-.88,7.78,4.69,.11,8.35,.7,9.02,1.15,2.33,1.52,8.67,6.58,3.85,30.83Z"/>
  <path class="cls-1" d="M385.73,32.54c-23.91,0-31.58,5.61-37.76,14.04h-1.22v.05c-5.57-8.03-15.29-14.09-32.36-14.09s-25.66,5.61-31.84,14.04h-1.13v-13.29h-25.82v94.9h25.82v-46.12c0-12.96,1.48-27.23,23.86-27.23,23.54,0,23.23,18.08,23.23,25.52v47.83h25.78v-46.55l.09,.43c0-12.96,1.48-27.23,23.86-27.23,23.53,0,23.23,18.08,23.23,25.52v47.83h25.78v-47.83c0-13.94-1.08-47.82-41.52-47.82Z"/>
  <path class="cls-1" d="M519.39,40.56v.03c-8.09-5.63-18.85-9.01-32.38-9.01-32.31,0-51.41,17.06-51.41,48.3s18.62,48.31,51.41,48.31,48.01-12.75,50.67-33.28h-25.12c-2.39,6.28-10.06,10.58-25.55,10.58-16.78,0-24.43-6.33-26.21-19.12h77.24c1.49-13.11-.17-33.35-18.65-45.81Zm-57.6,28.68c3-9.7,10.88-14.97,25.22-14.97,18.46,0,23.15,7.8,25.27,14.97h-50.49Z"/>
  <path class="cls-1" d="M592.76,70.22l-2.15-.32c-16.66-2.5-19.62-4.86-19.62-9.06,0-2.94,3.03-8.2,17.53-8.2s21.54,3.99,21.54,11.52v.82h26.41v-.82c0-14.71-8.33-32.25-47.95-32.25-36.7,0-44.4,15.91-44.4,29.26,0,19.07,17.04,25.16,44.54,28.79,1.3,.17,2.67,.33,4.06,.49,10.3,1.22,19.57,2.58,19.57,9.77,0,6.21-9.96,7.51-20.34,7.51-17.25,0-23.33-3.64-23.33-11.81v-.83h-26.64v1.86c-.05,4.82-.11,12.89,6.51,19.57,7.68,7.74,22.53,11.67,44.15,11.67,29.36,0,46.36-4.64,46.36-28.37s-24.57-26.38-46.24-29.6Z"/>
  <path class="cls-1" d="M188.65,141.59c.7,1.16,1.53,1.83,2.52,1.83,1.73,0,3.02-1.06,3.98-2.82-2.1,.28-4.49,.67-6.5,.99Zm11.65-1.32c-.24-.08-.69-.1-1.29-.07-1.29,3.88-3.29,6.32-6.24,6.08-2.34-.18-4.14-1.86-5.52-4.46-.76,.12-1.43,.22-1.94,.29-3.45,.48-4.09,2.25-4.09,2.25-1.29,4.89,3.21,5.37,3.21,5.37,0,0,15.63-1.28,17.88-3.85,2.24-2.57-.48-5.13-2.01-5.61Zm0,0c-.24-.08-.69-.1-1.29-.07-1.29,3.88-3.29,6.32-6.24,6.08-2.34-.18-4.14-1.86-5.52-4.46-.76,.12-1.43,.22-1.94,.29-3.45,.48-4.09,2.25-4.09,2.25-1.29,4.89,3.21,5.37,3.21,5.37,0,0,15.63-1.28,17.88-3.85,2.24-2.57-.48-5.13-2.01-5.61Zm-11.65,1.32c.7,1.16,1.53,1.83,2.52,1.83,1.73,0,3.02-1.06,3.98-2.82-2.1,.28-4.49,.67-6.5,.99Z"/>
  <path class="cls-1" d="M376.82,134.55l-22.15,70.34-21.7-70.34h-25.25l-21.69,70.34-22.15-70.34h-26.18l30.12,95.64h35.05l17.48-56.69,17.48,56.69h35.05l30.11-95.64h-26.17Z"/>
  <path class="cls-1" d="M478.24,134.49v14.05h-1.09c-6.49-8.48-17.32-14.05-35-14.05-40.46,0-44.73,33.9-44.73,47.85,0,12.88,4.52,47.85,44.65,47.85,17.97,0,28.89-5.04,35.36-13.36h.81v13.36h25.95v-95.7h-25.95Zm-28.64,73.39c-24.64,0-27.42-18.67-27.42-25.54,0-7.45,2.62-25.54,27.46-25.54,22.4,0,26.98,12.58,26.98,25.54,0,14.47-4.58,25.54-27.02,25.54Z"/>
  <path class="cls-1" d="M590.23,134.67l-27.56,71.94-27.72-71.94h-27.42l36.86,95.63h9.21l-13.93,36.36h27.41l50.58-131.99h-27.43Z"/>
</svg>