<?xml version="1.0" encoding="UTF-8"?>
<svg id="Layer_1" data-name="Layer 1" xmlns="http://www.w3.org/2000/svg" viewBox="0 0 1476.74 235.95">
  <defs>
    <style>
      .cls-1 {
        fill: #fff;
      }
    </style>
  </defs>
  <path class="cls-1" d="M126.9,16.38v62.52H45.59V16.38H11.75V172H45.59v-62.52H126.9v62.52h33.84V16.38h-33.84Z"/>
  <path class="cls-1" d="M240.05,44.91c-37.84,0-69.57,20.66-69.57,63.54s31.73,63.54,69.57,63.54,69.55-19.77,69.55-63.54-31.73-63.54-69.55-63.54Zm0,96.2c-21.21,0-36.3-9.26-36.3-32.67s15.09-32.66,36.3-32.66,36.28,9.66,36.28,32.66-15.09,32.67-36.28,32.67Z"/>
  <path class="cls-1" d="M487.14,47.26c-31.18,0-41.19,7.32-49.25,18.31h-1.59l.03,.07c-7.29-10.47-19.97-18.38-42.23-18.38s-33.45,7.32-41.53,18.31h-1.46v-17.33h-33.68v123.76h33.68v-60.15c0-16.89,1.92-35.51,31.11-35.51,30.7,0,30.3,23.59,30.3,33.3v62.37h33.62v-60.7l.12,.55c0-16.89,1.93-35.51,31.13-35.51,30.69,0,30.28,23.59,30.28,33.3v62.37h33.62v-62.38c0-18.17-1.41-62.35-54.15-62.35Z"/>
  <path class="cls-1" d="M684.54,117.45h1.25c1.93-17.1-.23-43.48-24.34-59.73v.04c-10.55-7.34-24.58-11.76-42.23-11.76-42.14,0-67.05,22.26-67.05,63.01s24.3,62.99,67.05,62.99,62.62-16.63,66.08-43.4h-32.76c-3.12,8.19-13.12,13.81-33.32,13.81-21.89,0-31.86-8.27-34.18-24.94h99.5Zm-98.19-22.35c3.9-12.64,14.18-19.52,32.88-19.52,24.08,0,30.19,10.19,32.96,19.52h-65.84Z"/>
  <path class="cls-1" d="M757.16,96.4l-2.82-.43c-21.73-3.25-25.58-6.33-25.58-11.8,0-3.85,3.94-10.69,22.86-10.69s28.09,5.2,28.09,15.02v1.07h34.43v-1.07c0-19.19-10.85-42.06-62.52-42.06-47.86,0-57.92,20.75-57.92,38.16,0,24.87,22.22,32.8,58.1,37.55,1.68,.21,3.47,.43,5.3,.64,13.42,1.58,25.51,3.36,25.51,12.73,0,8.11-12.99,9.81-26.53,9.81-22.5,0-30.43-4.75-30.43-15.42v-1.07h-34.74v2.41c-.05,6.29-.14,16.82,8.49,25.52,10.02,10.09,29.38,15.22,57.58,15.22,38.29,0,60.48-6.05,60.48-36.99s-32.05-34.41-60.31-38.6Z"/>
  <path class="cls-1" d="M906.69,57.72c.99,1.46,2.13,2.27,3.4,2.19,2.26-.13,3.86-1.6,4.98-3.96-2.71,.52-5.79,1.2-8.39,1.77Zm8.39-41.19h-15.08c.05,8.24,1.12,25.24,4.16,35.34,.44-.14,.9-.27,1.36-.39,3.68-.98,7.58-1.55,11.27-1.87,1.42-9.99-.42-24.81-1.71-33.09Zm6.68,38.59c-.31-.08-.9-.07-1.68,.01-1.4,5.14-3.81,8.48-7.68,8.39-3.05-.07-5.53-2.11-7.53-5.4-.98,.21-1.83,.39-2.49,.52-4.46,.89-5.16,3.23-5.16,3.23-1.3,6.46,4.58,6.76,4.58,6.76,0,0,20.27-2.84,23.01-6.35,2.73-3.51-1.02-6.64-3.04-7.16Zm19.98-38.59h-21.6c1.3,9.87,2.24,22.97,1.02,32.83,6.12-.2,10.93,.3,11.84,.82,3.14,1.81,11.76,7.93,7.32,39.87,0,0-2.14,6.66-10.55,7.79l8.75,37.52-3.79,10.59-5.95,.34-9.56-7.63-.43-7.03,2.24-2.22-2.71-3.48,2.97-6.59-5.16-4.6-1.1-7.2h-2.52s-.34-5.84-.34-5.84c0,0-7.62,1.13-10.21-.25-2.6-1.38-11.53-8.7-13.58-17.52-2.03-8.83-3.94-20.03-2.79-21.91,.5-.81,7.45-6.35,16.69-9.55-3.64-10.21-4.84-25.37-4.83-35.94h-12.39l-55.66,155.46h35.07l5.27-16.51h86.01l6.57,16.51h35.07l-55.66-155.46Zm-39.36,42.11c-4.46,.89-5.16,3.23-5.16,3.23-1.3,6.46,4.58,6.76,4.58,6.76,0,0,20.27-2.84,23.01-6.35,2.73-3.51-1.02-6.64-3.04-7.16-.31-.08-.9-.07-1.68,.01-1.4,5.14-3.81,8.48-7.68,8.39-3.05-.07-5.53-2.11-7.53-5.4-.98,.21-1.83,.39-2.49,.52Zm3.14-7.16c3.68-.98,7.58-1.55,11.27-1.87,1.42-9.99-.42-24.81-1.71-33.09h-15.08c.05,8.24,1.12,25.24,4.16,35.34,.44-.14,.9-.27,1.36-.39Zm4.58,8.43c2.26-.13,3.86-1.6,4.98-3.96-2.71,.52-5.79,1.2-8.39,1.77,.99,1.46,2.13,2.27,3.4,2.19Z"/>
  <path class="cls-1" d="M1150.88,47.27l-28.89,91.73-28.29-91.73h-32.93l-28.29,91.73-28.89-91.73h-34.14l39.28,124.72h45.7l22.81-73.94,22.8,73.94h45.71l39.27-124.72h-34.14Z"/>
  <path class="cls-1" d="M1283.17,47.18v18.34h-1.42c-8.46-11.06-22.59-18.34-45.66-18.34-52.77,0-58.34,44.23-58.34,62.41,0,16.81,5.9,62.41,58.25,62.41,23.44,0,37.67-6.56,46.12-17.41h1.06v17.41h33.84V47.18h-33.84Zm-37.35,95.72c-32.15,0-35.77-24.34-35.77-33.31,0-9.7,3.42-33.31,35.83-33.31,29.2,0,35.19,16.42,35.19,33.31,0,18.89-5.97,33.31-35.24,33.31Z"/>
  <path class="cls-1" d="M1429.23,47.42l-35.94,93.84-36.17-93.84h-35.75l48.06,124.74h12.01l-18.15,47.42h35.75l65.95-172.16h-35.76Z"/>
</svg>